<mxfile host="app.diagrams.net" agent="Mozilla/5.0 (Windows NT 10.0; Win64; x64) AppleWebKit/537.36 (KHTML, like Gecko) Chrome/141.0.0.0 Safari/537.36" version="28.2.5">
  <diagram name="Page-1" id="ygO_C231_FGsSezgK3bJ">
    <mxGraphModel dx="2377" dy="1238" grid="1" gridSize="10" guides="1" tooltips="1" connect="1" arrows="1" fold="1" page="1" pageScale="1" pageWidth="1920" pageHeight="1200" background="none" math="0" shadow="0">
      <root>
        <mxCell id="0" />
        <mxCell id="1" parent="0" />
        <mxCell id="dl3TqQ7Z1zIjCX-AGE2N-1" value="Internet" style="image;aspect=fixed;perimeter=ellipsePerimeter;align=center;shadow=0;dashed=0;spacingTop=3;image=img/lib/active_directory/internet_globe.svg;fontStyle=1;textShadow=0;fontSize=21;labelBorderColor=none;verticalAlign=top;horizontal=1;html=1;imageBackground=none;imageBorder=none;" parent="1" vertex="1">
          <mxGeometry x="920" y="40" width="80" height="80" as="geometry" />
        </mxCell>
        <mxCell id="dl3TqQ7Z1zIjCX-AGE2N-2" value="&lt;font style=&quot;font-size: 24px;&quot;&gt;VMWare&lt;/font&gt;&lt;div&gt;&lt;font style=&quot;&quot;&gt;&lt;font style=&quot;font-size: 24px;&quot;&gt;&amp;nbsp;NAT Gateway:&lt;br&gt;&lt;/font&gt;&lt;div style=&quot;&quot;&gt;&lt;span style=&quot;font-size: 24px;&quot;&gt;192.168.149.2&lt;/span&gt;&lt;/div&gt;&lt;/font&gt;&lt;/div&gt;" style="rounded=0;whiteSpace=wrap;html=1;spacing=0;spacingBottom=-10;" parent="1" vertex="1">
          <mxGeometry x="811" y="220" width="298.75" height="110" as="geometry" />
        </mxCell>
        <mxCell id="dl3TqQ7Z1zIjCX-AGE2N-3" value="" style="endArrow=classic;html=1;rounded=0;exitX=0.25;exitY=1;exitDx=0;exitDy=0;entryX=0.5;entryY=0;entryDx=0;entryDy=0;" parent="1" source="dl3TqQ7Z1zIjCX-AGE2N-2" target="dl3TqQ7Z1zIjCX-AGE2N-4" edge="1">
          <mxGeometry width="50" height="50" relative="1" as="geometry">
            <mxPoint x="450" y="520" as="sourcePoint" />
            <mxPoint x="440" y="530" as="targetPoint" />
          </mxGeometry>
        </mxCell>
        <mxCell id="dl3TqQ7Z1zIjCX-AGE2N-4" value="&lt;font&gt;DC01&lt;/font&gt;&lt;div&gt;192.168.149.10&lt;/div&gt;&lt;div&gt;&lt;font&gt;Domain Controller&lt;/font&gt;&lt;/div&gt;&lt;div&gt;&lt;font&gt;DNS+DHCP&lt;/font&gt;&lt;/div&gt;" style="ellipse;whiteSpace=wrap;html=1;fontSize=21;" parent="1" vertex="1">
          <mxGeometry x="270" y="520" width="210" height="140" as="geometry" />
        </mxCell>
        <mxCell id="dl3TqQ7Z1zIjCX-AGE2N-5" value="&lt;font&gt;UBUNTU01&lt;br&gt;&lt;/font&gt;&lt;div&gt;&lt;span style=&quot;background-color: transparent; color: light-dark(rgb(0, 0, 0), rgb(255, 255, 255));&quot;&gt;192.168.149.20&lt;/span&gt;&lt;/div&gt;&lt;div&gt;&lt;span style=&quot;background-color: transparent; color: light-dark(rgb(0, 0, 0), rgb(255, 255, 255));&quot;&gt;Linux Server&lt;/span&gt;&lt;/div&gt;&lt;div&gt;&lt;font&gt;Web/Logs&lt;/font&gt;&lt;/div&gt;" style="ellipse;whiteSpace=wrap;html=1;fontSize=21;" parent="1" vertex="1">
          <mxGeometry x="850.87" y="520" width="219.13" height="140" as="geometry" />
        </mxCell>
        <mxCell id="dl3TqQ7Z1zIjCX-AGE2N-6" value="" style="endArrow=classic;html=1;rounded=0;entryX=0.5;entryY=0;entryDx=0;entryDy=0;" parent="1" target="dl3TqQ7Z1zIjCX-AGE2N-2" edge="1">
          <mxGeometry width="50" height="50" relative="1" as="geometry">
            <mxPoint x="960" y="160" as="sourcePoint" />
            <mxPoint x="1030" y="190" as="targetPoint" />
          </mxGeometry>
        </mxCell>
        <mxCell id="dl3TqQ7Z1zIjCX-AGE2N-7" value="" style="endArrow=classic;html=1;rounded=0;exitX=0.5;exitY=1;exitDx=0;exitDy=0;entryX=0.5;entryY=0;entryDx=0;entryDy=0;" parent="1" source="dl3TqQ7Z1zIjCX-AGE2N-2" target="dl3TqQ7Z1zIjCX-AGE2N-5" edge="1">
          <mxGeometry width="50" height="50" relative="1" as="geometry">
            <mxPoint x="990" y="510" as="sourcePoint" />
            <mxPoint x="1040" y="460" as="targetPoint" />
          </mxGeometry>
        </mxCell>
        <mxCell id="dl3TqQ7Z1zIjCX-AGE2N-8" value="" style="endArrow=classic;html=1;rounded=0;exitX=0.75;exitY=1;exitDx=0;exitDy=0;entryX=0.5;entryY=0;entryDx=0;entryDy=0;" parent="1" source="dl3TqQ7Z1zIjCX-AGE2N-2" target="dl3TqQ7Z1zIjCX-AGE2N-9" edge="1">
          <mxGeometry width="50" height="50" relative="1" as="geometry">
            <mxPoint x="1190" y="630" as="sourcePoint" />
            <mxPoint x="1560" y="520" as="targetPoint" />
          </mxGeometry>
        </mxCell>
        <mxCell id="dl3TqQ7Z1zIjCX-AGE2N-9" value="&lt;font&gt;FILESRV01&lt;br&gt;&lt;/font&gt;&lt;div&gt;&lt;span style=&quot;background-color: transparent; color: light-dark(rgb(0, 0, 0), rgb(255, 255, 255));&quot;&gt;192.168.149.30&lt;/span&gt;&lt;/div&gt;&lt;div&gt;&lt;span style=&quot;background-color: transparent; color: light-dark(rgb(0, 0, 0), rgb(255, 255, 255));&quot;&gt;File Server&lt;/span&gt;&lt;/div&gt;&lt;div&gt;&lt;font&gt;SMB Shares&lt;/font&gt;&lt;/div&gt;" style="ellipse;whiteSpace=wrap;html=1;fontSize=21;" parent="1" vertex="1">
          <mxGeometry x="1440" y="520" width="210" height="140" as="geometry" />
        </mxCell>
        <mxCell id="dl3TqQ7Z1zIjCX-AGE2N-10" value="" style="strokeWidth=2;html=1;shape=mxgraph.flowchart.annotation_2;align=left;labelPosition=right;pointerEvents=1;rotation=-90;" parent="1" vertex="1">
          <mxGeometry x="906.25" y="126.25" width="107.5" height="1190" as="geometry" />
        </mxCell>
        <mxCell id="dl3TqQ7Z1zIjCX-AGE2N-11" value="" style="line;strokeWidth=2;direction=south;html=1;" parent="1" vertex="1">
          <mxGeometry x="955" y="660" width="10" height="140" as="geometry" />
        </mxCell>
        <mxCell id="dl3TqQ7Z1zIjCX-AGE2N-12" value="" style="strokeWidth=2;html=1;shape=mxgraph.flowchart.annotation_2;align=left;labelPosition=right;pointerEvents=1;rotation=90;" parent="1" vertex="1">
          <mxGeometry x="935" y="570" width="50" height="500" as="geometry" />
        </mxCell>
        <mxCell id="dl3TqQ7Z1zIjCX-AGE2N-13" value="&lt;span style=&quot;background-color: light-dark(rgb(0, 0, 0), rgb(0, 0, 0));&quot;&gt;&lt;font style=&quot;font-size: 20px;&quot;&gt;WIN11-CLI01&lt;/font&gt;&lt;/span&gt;&lt;div&gt;&lt;span style=&quot;background-color: light-dark(rgb(0, 0, 0), rgb(0, 0, 0));&quot;&gt;&lt;font style=&quot;font-size: 20px;&quot;&gt;Mario Rossi&lt;/font&gt;&lt;/span&gt;&lt;/div&gt;&lt;div&gt;&lt;span style=&quot;background-color: light-dark(rgb(0, 0, 0), rgb(0, 0, 0));&quot;&gt;&lt;font style=&quot;font-size: 20px;&quot;&gt;Client Dominio&lt;/font&gt;&lt;/span&gt;&lt;/div&gt;" style="image;points=[];aspect=fixed;html=1;align=center;shadow=0;dashed=0;image=img/lib/allied_telesis/computer_and_terminals/Personal_Computer.svg;" parent="1" vertex="1">
          <mxGeometry x="640" y="850" width="118.06" height="160" as="geometry" />
        </mxCell>
        <mxCell id="dl3TqQ7Z1zIjCX-AGE2N-14" value="&lt;span style=&quot;background-color: light-dark(rgb(0, 0, 0), rgb(0, 0, 0));&quot;&gt;&lt;font&gt;WIN11-CLI02&lt;/font&gt;&lt;/span&gt;&lt;div&gt;&lt;span style=&quot;background-color: light-dark(rgb(0, 0, 0), rgb(0, 0, 0));&quot;&gt;&lt;font&gt;Luca Bianchi&lt;/font&gt;&lt;/span&gt;&lt;/div&gt;&lt;div&gt;&lt;span style=&quot;background-color: light-dark(rgb(0, 0, 0), rgb(0, 0, 0));&quot;&gt;&lt;font&gt;Client Dominio&lt;/font&gt;&lt;/span&gt;&lt;/div&gt;" style="image;points=[];aspect=fixed;html=1;align=center;shadow=0;dashed=0;image=img/lib/allied_telesis/computer_and_terminals/Personal_Computer.svg;fontSize=21;" parent="1" vertex="1">
          <mxGeometry x="1140" y="850" width="118.06" height="160" as="geometry" />
        </mxCell>
        <mxCell id="dl3TqQ7Z1zIjCX-AGE2N-15" value="" style="shape=table;startSize=0;container=1;collapsible=0;childLayout=tableLayout;fontSize=16;align=left;verticalAlign=top;fillColor=none;strokeColor=none;fontColor=#4D4D4D;fontStyle=1;spacingLeft=6;spacing=0;resizable=0;" parent="1" vertex="1">
          <mxGeometry x="30" y="34" width="180" height="566" as="geometry" />
        </mxCell>
        <mxCell id="dl3TqQ7Z1zIjCX-AGE2N-16" value="" style="shape=tableRow;horizontal=0;startSize=0;swimlaneHead=0;swimlaneBody=0;strokeColor=inherit;top=0;left=0;bottom=0;right=0;collapsible=0;dropTarget=0;fillColor=none;points=[[0,0.5],[1,0.5]];portConstraint=eastwest;fontSize=12;" parent="dl3TqQ7Z1zIjCX-AGE2N-15" vertex="1">
          <mxGeometry width="180" height="70" as="geometry" />
        </mxCell>
        <mxCell id="dl3TqQ7Z1zIjCX-AGE2N-17" value="&lt;div&gt;&lt;font style=&quot;font-size: 15px;&quot;&gt;&lt;b&gt;&lt;br&gt;&lt;/b&gt;&lt;/font&gt;&lt;/div&gt;&lt;font style=&quot;font-size: 15px;&quot;&gt;&lt;b&gt;Rete Interna&lt;span style=&quot;white-space: pre;&quot;&gt;&#x9;&lt;/span&gt;&lt;span style=&quot;white-space: pre;&quot;&gt;&#x9;&lt;/span&gt;&lt;/b&gt;&lt;/font&gt;&lt;div&gt;&lt;span style=&quot;font-size: 15px;&quot;&gt;&lt;b&gt;192.168.149.0/24&lt;/b&gt;&lt;/span&gt;&lt;/div&gt;&lt;div&gt;&lt;br&gt;&lt;/div&gt;" style="shape=partialRectangle;html=1;whiteSpace=wrap;connectable=0;strokeColor=inherit;overflow=hidden;fillColor=#1E4074;top=0;left=0;bottom=0;right=0;pointerEvents=1;fontSize=12;align=left;fontColor=#FFFFFF;gradientColor=none;spacingLeft=10;spacingRight=4;" parent="dl3TqQ7Z1zIjCX-AGE2N-16" vertex="1">
          <mxGeometry width="180" height="70" as="geometry">
            <mxRectangle width="180" height="70" as="alternateBounds" />
          </mxGeometry>
        </mxCell>
        <mxCell id="dl3TqQ7Z1zIjCX-AGE2N-18" value="" style="shape=tableRow;horizontal=0;startSize=0;swimlaneHead=0;swimlaneBody=0;strokeColor=inherit;top=0;left=0;bottom=0;right=0;collapsible=0;dropTarget=0;fillColor=none;points=[[0,0.5],[1,0.5]];portConstraint=eastwest;fontSize=12;" parent="dl3TqQ7Z1zIjCX-AGE2N-15" vertex="1">
          <mxGeometry y="70" width="180" height="60" as="geometry" />
        </mxCell>
        <mxCell id="dl3TqQ7Z1zIjCX-AGE2N-19" value="&lt;font style=&quot;font-size: 15px;&quot;&gt;&lt;b&gt;Gateway NAT&lt;br&gt;192.168.149.2&lt;/b&gt;&lt;/font&gt;" style="shape=partialRectangle;html=1;whiteSpace=wrap;connectable=0;strokeColor=inherit;overflow=hidden;fillColor=#3162AF;top=0;left=0;bottom=0;right=0;pointerEvents=1;fontSize=12;align=left;fontColor=#FFFFFF;gradientColor=none;spacingLeft=10;spacingRight=4;" parent="dl3TqQ7Z1zIjCX-AGE2N-18" vertex="1">
          <mxGeometry width="180" height="60" as="geometry">
            <mxRectangle width="180" height="60" as="alternateBounds" />
          </mxGeometry>
        </mxCell>
        <mxCell id="dl3TqQ7Z1zIjCX-AGE2N-20" value="" style="shape=tableRow;horizontal=0;startSize=0;swimlaneHead=0;swimlaneBody=0;strokeColor=inherit;top=0;left=0;bottom=0;right=0;collapsible=0;dropTarget=0;fillColor=none;points=[[0,0.5],[1,0.5]];portConstraint=eastwest;fontSize=12;" parent="dl3TqQ7Z1zIjCX-AGE2N-15" vertex="1">
          <mxGeometry y="130" width="180" height="66" as="geometry" />
        </mxCell>
        <mxCell id="dl3TqQ7Z1zIjCX-AGE2N-21" value="&lt;b&gt;&lt;font style=&quot;font-size: 15px;&quot;&gt;Domain Controller&lt;/font&gt;&lt;/b&gt;&lt;div&gt;&lt;font style=&quot;&quot;&gt;&lt;span style=&quot;font-size: 15px;&quot;&gt;&lt;b&gt;192.168.149.10&lt;/b&gt;&lt;/span&gt;&lt;/font&gt;&lt;/div&gt;" style="shape=partialRectangle;html=1;whiteSpace=wrap;connectable=0;strokeColor=inherit;overflow=hidden;fillColor=#52a2d8;top=0;left=0;bottom=0;right=0;pointerEvents=1;fontSize=12;align=left;fontColor=#FFFFFF;gradientColor=none;spacingLeft=10;spacingRight=4;" parent="dl3TqQ7Z1zIjCX-AGE2N-20" vertex="1">
          <mxGeometry width="180" height="66" as="geometry">
            <mxRectangle width="180" height="66" as="alternateBounds" />
          </mxGeometry>
        </mxCell>
        <mxCell id="sOKWARmR8uyY6CDnjeeu-1" value="" style="shape=tableRow;horizontal=0;startSize=0;swimlaneHead=0;swimlaneBody=0;strokeColor=inherit;top=0;left=0;bottom=0;right=0;collapsible=0;dropTarget=0;fillColor=none;points=[[0,0.5],[1,0.5]];portConstraint=eastwest;fontSize=12;" vertex="1" parent="dl3TqQ7Z1zIjCX-AGE2N-15">
          <mxGeometry y="196" width="180" height="66" as="geometry" />
        </mxCell>
        <mxCell id="sOKWARmR8uyY6CDnjeeu-2" value="&lt;span style=&quot;font-size: 15px;&quot;&gt;&lt;b&gt;UBUNTU01&lt;/b&gt;&lt;/span&gt;&lt;div&gt;&lt;span style=&quot;font-size: 15px;&quot;&gt;&lt;b&gt;192.168.149.20&lt;/b&gt;&lt;/span&gt;&lt;/div&gt;" style="shape=partialRectangle;html=1;whiteSpace=wrap;connectable=0;strokeColor=inherit;overflow=hidden;fillColor=#52a2d8;top=0;left=0;bottom=0;right=0;pointerEvents=1;fontSize=12;align=left;fontColor=#FFFFFF;gradientColor=none;spacingLeft=10;spacingRight=4;" vertex="1" parent="sOKWARmR8uyY6CDnjeeu-1">
          <mxGeometry width="180" height="66" as="geometry">
            <mxRectangle width="180" height="66" as="alternateBounds" />
          </mxGeometry>
        </mxCell>
        <mxCell id="sOKWARmR8uyY6CDnjeeu-3" value="" style="shape=tableRow;horizontal=0;startSize=0;swimlaneHead=0;swimlaneBody=0;strokeColor=inherit;top=0;left=0;bottom=0;right=0;collapsible=0;dropTarget=0;fillColor=none;points=[[0,0.5],[1,0.5]];portConstraint=eastwest;fontSize=12;" vertex="1" parent="dl3TqQ7Z1zIjCX-AGE2N-15">
          <mxGeometry y="262" width="180" height="66" as="geometry" />
        </mxCell>
        <mxCell id="sOKWARmR8uyY6CDnjeeu-4" value="&lt;span style=&quot;font-size: 15px;&quot;&gt;&lt;b&gt;FILESRV01&lt;/b&gt;&lt;/span&gt;&lt;div&gt;&lt;span style=&quot;font-size: 15px;&quot;&gt;&lt;b&gt;192.168.149.30&lt;/b&gt;&lt;/span&gt;&lt;/div&gt;" style="shape=partialRectangle;html=1;whiteSpace=wrap;connectable=0;strokeColor=inherit;overflow=hidden;fillColor=#52a2d8;top=0;left=0;bottom=0;right=0;pointerEvents=1;fontSize=12;align=left;fontColor=#FFFFFF;gradientColor=none;spacingLeft=10;spacingRight=4;" vertex="1" parent="sOKWARmR8uyY6CDnjeeu-3">
          <mxGeometry width="180" height="66" as="geometry">
            <mxRectangle width="180" height="66" as="alternateBounds" />
          </mxGeometry>
        </mxCell>
        <mxCell id="dl3TqQ7Z1zIjCX-AGE2N-22" value="" style="shape=tableRow;horizontal=0;startSize=0;swimlaneHead=0;swimlaneBody=0;strokeColor=inherit;top=0;left=0;bottom=0;right=0;collapsible=0;dropTarget=0;fillColor=none;points=[[0,0.5],[1,0.5]];portConstraint=eastwest;fontSize=12;" parent="dl3TqQ7Z1zIjCX-AGE2N-15" vertex="1">
          <mxGeometry y="328" width="180" height="74" as="geometry" />
        </mxCell>
        <mxCell id="dl3TqQ7Z1zIjCX-AGE2N-23" value="&lt;span style=&quot;font-size: 15px;&quot;&gt;&lt;b&gt;DHCP Range 192.168.149.100 – 192.168.149.200&lt;/b&gt;&lt;/span&gt;" style="shape=partialRectangle;html=1;whiteSpace=wrap;connectable=0;strokeColor=#B20000;overflow=hidden;fillColor=#e51400;top=0;left=0;bottom=0;right=0;pointerEvents=1;fontSize=12;align=left;fontColor=#ffffff;spacingLeft=10;spacingRight=4;" parent="dl3TqQ7Z1zIjCX-AGE2N-22" vertex="1">
          <mxGeometry width="180" height="74" as="geometry">
            <mxRectangle width="180" height="74" as="alternateBounds" />
          </mxGeometry>
        </mxCell>
        <mxCell id="dl3TqQ7Z1zIjCX-AGE2N-24" value="" style="shape=tableRow;horizontal=0;startSize=0;swimlaneHead=0;swimlaneBody=0;strokeColor=inherit;top=0;left=0;bottom=0;right=0;collapsible=0;dropTarget=0;fillColor=none;points=[[0,0.5],[1,0.5]];portConstraint=eastwest;fontSize=12;" parent="dl3TqQ7Z1zIjCX-AGE2N-15" vertex="1">
          <mxGeometry y="402" width="180" height="54" as="geometry" />
        </mxCell>
        <mxCell id="dl3TqQ7Z1zIjCX-AGE2N-25" value="&lt;span style=&quot;font-size: 15px;&quot;&gt;&lt;b&gt;DNS Primario&lt;/b&gt;&lt;/span&gt;&lt;div&gt;&lt;span style=&quot;font-size: 15px;&quot;&gt;&lt;b&gt;192.168.149.10 (DC-01)&lt;/b&gt;&lt;/span&gt;&lt;/div&gt;" style="shape=partialRectangle;html=1;whiteSpace=wrap;connectable=0;strokeColor=#B09500;overflow=hidden;fillColor=#e3c800;top=0;left=0;bottom=0;right=0;pointerEvents=1;fontSize=12;align=left;fontColor=#000000;spacingLeft=10;spacingRight=4;" parent="dl3TqQ7Z1zIjCX-AGE2N-24" vertex="1">
          <mxGeometry width="180" height="54" as="geometry">
            <mxRectangle width="180" height="54" as="alternateBounds" />
          </mxGeometry>
        </mxCell>
        <mxCell id="dl3TqQ7Z1zIjCX-AGE2N-26" value="" style="shape=tableRow;horizontal=0;startSize=0;swimlaneHead=0;swimlaneBody=0;strokeColor=inherit;top=0;left=0;bottom=0;right=0;collapsible=0;dropTarget=0;fillColor=none;points=[[0,0.5],[1,0.5]];portConstraint=eastwest;fontSize=12;" parent="dl3TqQ7Z1zIjCX-AGE2N-15" vertex="1">
          <mxGeometry y="456" width="180" height="55" as="geometry" />
        </mxCell>
        <mxCell id="dl3TqQ7Z1zIjCX-AGE2N-27" value="&lt;font style=&quot;font-size: 15px;&quot;&gt;&lt;b&gt;DNS Secondario&lt;/b&gt;&lt;/font&gt;&lt;div&gt;&lt;font style=&quot;font-size: 15px;&quot;&gt;&lt;b&gt;8.8.8.8 (facoltativo)&lt;/b&gt;&lt;/font&gt;&lt;/div&gt;" style="shape=partialRectangle;html=1;whiteSpace=wrap;connectable=0;strokeColor=#3700CC;overflow=hidden;fillColor=#6a00ff;top=0;left=0;bottom=0;right=0;pointerEvents=1;fontSize=12;align=left;fontColor=#ffffff;spacingLeft=10;spacingRight=4;" parent="dl3TqQ7Z1zIjCX-AGE2N-26" vertex="1">
          <mxGeometry width="180" height="55" as="geometry">
            <mxRectangle width="180" height="55" as="alternateBounds" />
          </mxGeometry>
        </mxCell>
        <mxCell id="dl3TqQ7Z1zIjCX-AGE2N-28" value="" style="shape=tableRow;horizontal=0;startSize=0;swimlaneHead=0;swimlaneBody=0;strokeColor=inherit;top=0;left=0;bottom=0;right=0;collapsible=0;dropTarget=0;fillColor=none;points=[[0,0.5],[1,0.5]];portConstraint=eastwest;fontSize=12;" parent="dl3TqQ7Z1zIjCX-AGE2N-15" vertex="1">
          <mxGeometry y="511" width="180" height="55" as="geometry" />
        </mxCell>
        <mxCell id="dl3TqQ7Z1zIjCX-AGE2N-29" value="&lt;font style=&quot;font-size: 15px;&quot;&gt;&lt;b&gt;Subnet Mask&lt;/b&gt;&lt;/font&gt;&lt;div&gt;&lt;font style=&quot;font-size: 15px;&quot;&gt;&lt;b&gt;255.255.255.0&lt;/b&gt;&lt;/font&gt;&lt;/div&gt;" style="shape=partialRectangle;html=1;whiteSpace=wrap;connectable=0;strokeColor=#6D1F00;overflow=hidden;fillColor=#a0522d;top=0;left=0;bottom=0;right=0;pointerEvents=1;fontSize=12;align=left;fontColor=#ffffff;spacingLeft=10;spacingRight=4;" parent="dl3TqQ7Z1zIjCX-AGE2N-28" vertex="1">
          <mxGeometry width="180" height="55" as="geometry">
            <mxRectangle width="180" height="55" as="alternateBounds" />
          </mxGeometry>
        </mxCell>
      </root>
    </mxGraphModel>
  </diagram>
</mxfile>
